<svg xmlns="http://www.w3.org/2000/svg" xmlns:xlink="http://www.w3.org/1999/xlink" version="1.1" id="Layer_1" x="0px" y="0px" viewBox="0 0 16 16" style="enable-background:new 0 0 16 16;" xml:space="preserve">
<style type="text/css">
	.st0{fill:none;stroke:#FFFFFF;stroke-width:0.5;stroke-miterlimit:10;}
	.st1{fill:#FFFFFF;}
	.st2{font-family:'CalisMTBol';}
	.st3{font-size:5.3163px;}
</style>
<g>
	<g>
		<rect x="4.14" y="4.1" class="st0" width="7.68" height="7.62"/>
		<polyline class="st0" points="9.94,4.07 11.21,2.79 14.18,2.79   "/>
		<polyline class="st0" points="11.89,7.22 13.41,5.64 14.26,5.64   "/>
		<polyline class="st0" points="9.94,11.77 11.21,13.05 14.18,13.05   "/>
		<polyline class="st0" points="11.89,8.62 13.41,10.2 14.26,10.2   "/>
		<line class="st0" x1="11.81" y1="7.9" x2="14.3" y2="7.9"/>
		<polyline class="st0" points="5.98,4.07 4.71,2.79 1.74,2.79   "/>
		<polyline class="st0" points="4.03,7.22 2.51,5.64 1.65,5.64   "/>
		<polyline class="st0" points="5.98,11.77 4.71,13.05 1.74,13.05   "/>
		<polyline class="st0" points="4.03,8.62 2.51,10.2 1.65,10.2   "/>
		<line class="st0" x1="4.11" y1="7.9" x2="1.62" y2="7.9"/>
		<polyline class="st0" points="5.57,1.61 6.95,2.97 6.95,4   "/>
		<polyline class="st0" points="10.39,1.61 9.02,2.97 9.02,4   "/>
		<line class="st0" x1="7.97" y1="4.07" x2="7.97" y2="1.72"/>
		<polyline class="st0" points="5.57,14.21 6.95,12.85 6.95,11.82   "/>
		<polyline class="st0" points="10.39,14.21 9.02,12.85 9.02,11.82   "/>
		<line class="st0" x1="7.97" y1="11.75" x2="7.97" y2="14.11"/>
		<circle class="st0" cx="7.97" cy="1.12" r="0.71"/>
		<circle class="st0" cx="10.78" cy="1.13" r="0.71"/>
		<circle class="st0" cx="14.93" cy="2.78" r="0.71"/>
		<circle class="st0" cx="14.93" cy="5.67" r="0.71"/>
		<circle class="st0" cx="14.93" cy="7.92" r="0.71"/>
		<circle class="st0" cx="14.93" cy="10.18" r="0.71"/>
		<circle class="st0" cx="14.93" cy="13.09" r="0.71"/>
		<circle class="st0" cx="1.07" cy="2.78" r="0.71"/>
		<circle class="st0" cx="1.07" cy="5.67" r="0.71"/>
		<circle class="st0" cx="1.07" cy="7.92" r="0.71"/>
		<circle class="st0" cx="1.07" cy="10.18" r="0.71"/>
		<circle class="st0" cx="1.07" cy="13.09" r="0.71"/>
		<circle class="st0" cx="5.16" cy="1.13" r="0.71"/>
		<circle class="st0" cx="7.97" cy="14.88" r="0.71"/>
		<circle class="st0" cx="10.78" cy="14.79" r="0.71"/>
		<circle class="st0" cx="5.16" cy="14.79" r="0.71"/>
	</g>
	<text transform="matrix(1 0 0 1 4.6967 9.4885)" class="st1 st2 st3">AI</text>
</g>
</svg>