<svg xmlns="http://www.w3.org/2000/svg" xmlns:xlink="http://www.w3.org/1999/xlink" version="1.1" id="Layer_1" x="0px" y="0px" viewBox="0 0 16 16" style="enable-background:new 0 0 16 16;" xml:space="preserve">
<style type="text/css">
	.st0{fill:#FFFFFF;}
</style>
<path class="st0" d="M7.99,0.27L1.41,4.19v7.71l6.56,3.82l6.62-3.82V4.19L7.99,0.27z M7.4,4.58c0-0.33,0.27-0.6,0.6-0.6  s0.6,0.27,0.6,0.6v3.5c0,0.33-0.27,0.6-0.6,0.6s-0.6-0.27-0.6-0.6V4.58z M6.16,11.6c-0.76-0.34-1.37-0.95-1.71-1.7  C3.43,7.7,4.34,5.56,6.01,4.59l0.62,0.84C5.69,5.92,5.05,6.9,5.05,8.03c0,2.11,2.21,3.7,4.43,2.59c0.48-0.24,0.87-0.63,1.11-1.11  c0.85-1.72,0.1-3.42-1.26-4.11l0.62-0.83c1.21,0.68,2.02,1.98,2.02,3.47C11.98,10.82,9.11,12.94,6.16,11.6z"/>
</svg>